<?xml version="1.0" encoding="UTF-8"?>
<svg xmlns="http://www.w3.org/2000/svg" xmlns:xlink="http://www.w3.org/1999/xlink" width="362" height="250" viewBox="0 0 362 250">
<path fill="none" stroke-width="0.4" stroke-linecap="butt" stroke-linejoin="round" stroke="rgb(0%, 0%, 0%)" stroke-opacity="1" stroke-miterlimit="10" d="M 144 656 L 208 720 L 224 656 L 288 672 L 240 704 L 368 752 L 384 672 L 464 640 L 352 592 L 256 512 L 208 592 L 112 560 L 176 624 L 144 656 " transform="matrix(1, 0, 0, -1, -107, 757)"/>
<path fill="none" stroke-width="0.4" stroke-linecap="round" stroke-linejoin="round" stroke="rgb(0%, 0%, 0%)" stroke-opacity="1" stroke-miterlimit="10" d="M 144 656 L 144 656 " transform="matrix(1, 0, 0, -1, -107, 757)"/>
<path fill-rule="evenodd" fill="rgb(0%, 0%, 0%)" fill-opacity="1" d="M 38.800781 101 C 38.800781 98.601563 35.199219 98.601563 35.199219 101 C 35.199219 103.398438 38.800781 103.398438 38.800781 101 Z M 38.199219 101 C 38.199219 99.398438 35.800781 99.398438 35.800781 101 C 35.800781 102.601563 38.199219 102.601563 38.199219 101 Z M 38.199219 101 "/>
<path fill-rule="evenodd" fill="rgb(0%, 0%, 0%)" fill-opacity="1" d="M 6.800781 197 C 6.800781 194.601563 3.199219 194.601563 3.199219 197 C 3.199219 199.398438 6.800781 199.398438 6.800781 197 Z M 6.199219 197 C 6.199219 195.398438 3.800781 195.398438 3.800781 197 C 3.800781 198.601563 6.199219 198.601563 6.199219 197 Z M 6.199219 197 "/>
<path fill-rule="evenodd" fill="rgb(0%, 0%, 0%)" fill-opacity="1" d="M 102.800781 165 C 102.800781 162.601563 99.199219 162.601563 99.199219 165 C 99.199219 167.398438 102.800781 167.398438 102.800781 165 Z M 102.199219 165 C 102.199219 163.398438 99.800781 163.398438 99.800781 165 C 99.800781 166.601563 102.199219 166.601563 102.199219 165 Z M 102.199219 165 "/>
<path fill-rule="evenodd" fill="rgb(0%, 0%, 0%)" fill-opacity="1" d="M 150.800781 245 C 150.800781 242.601563 147.199219 242.601563 147.199219 245 C 147.199219 247.398438 150.800781 247.398438 150.800781 245 Z M 150.199219 245 C 150.199219 243.398438 147.800781 243.398438 147.800781 245 C 147.800781 246.601563 150.199219 246.601563 150.199219 245 Z M 150.199219 245 "/>
<path fill-rule="evenodd" fill="rgb(0%, 0%, 0%)" fill-opacity="1" d="M 102.800781 37 C 102.800781 34.601563 99.199219 34.601563 99.199219 37 C 99.199219 39.398438 102.800781 39.398438 102.800781 37 Z M 102.199219 37 C 102.199219 35.398438 99.800781 35.398438 99.800781 37 C 99.800781 38.601563 102.199219 38.601563 102.199219 37 Z M 102.199219 37 "/>
<path fill-rule="evenodd" fill="rgb(0%, 0%, 0%)" fill-opacity="1" d="M 118.800781 101 C 118.800781 98.601563 115.199219 98.601563 115.199219 101 C 115.199219 103.398438 118.800781 103.398438 118.800781 101 Z M 118.199219 101 C 118.199219 99.398438 115.800781 99.398438 115.800781 101 C 115.800781 102.601563 118.199219 102.601563 118.199219 101 Z M 118.199219 101 "/>
<path fill-rule="evenodd" fill="rgb(0%, 0%, 0%)" fill-opacity="1" d="M 182.800781 85 C 182.800781 82.601563 179.199219 82.601563 179.199219 85 C 179.199219 87.398438 182.800781 87.398438 182.800781 85 Z M 182.199219 85 C 182.199219 83.398438 179.800781 83.398438 179.800781 85 C 179.800781 86.601563 182.199219 86.601563 182.199219 85 Z M 182.199219 85 "/>
<path fill-rule="evenodd" fill="rgb(0%, 0%, 0%)" fill-opacity="1" d="M 134.800781 53 C 134.800781 50.601563 131.199219 50.601563 131.199219 53 C 131.199219 55.398438 134.800781 55.398438 134.800781 53 Z M 134.199219 53 C 134.199219 51.398438 131.800781 51.398438 131.800781 53 C 131.800781 54.601563 134.199219 54.601563 134.199219 53 Z M 134.199219 53 "/>
<path fill-rule="evenodd" fill="rgb(0%, 0%, 0%)" fill-opacity="1" d="M 262.800781 5 C 262.800781 2.601563 259.199219 2.601563 259.199219 5 C 259.199219 7.398438 262.800781 7.398438 262.800781 5 Z M 262.199219 5 C 262.199219 3.398438 259.800781 3.398438 259.800781 5 C 259.800781 6.601563 262.199219 6.601563 262.199219 5 Z M 262.199219 5 "/>
<path fill-rule="evenodd" fill="rgb(0%, 0%, 0%)" fill-opacity="1" d="M 278.800781 85 C 278.800781 82.601563 275.199219 82.601563 275.199219 85 C 275.199219 87.398438 278.800781 87.398438 278.800781 85 Z M 278.199219 85 C 278.199219 83.398438 275.800781 83.398438 275.800781 85 C 275.800781 86.601563 278.199219 86.601563 278.199219 85 Z M 278.199219 85 "/>
<path fill-rule="evenodd" fill="rgb(0%, 0%, 0%)" fill-opacity="1" d="M 358.800781 117 C 358.800781 114.601563 355.199219 114.601563 355.199219 117 C 355.199219 119.398438 358.800781 119.398438 358.800781 117 Z M 358.199219 117 C 358.199219 115.398438 355.800781 115.398438 355.800781 117 C 355.800781 118.601563 358.199219 118.601563 358.199219 117 Z M 358.199219 117 "/>
<path fill-rule="evenodd" fill="rgb(0%, 0%, 0%)" fill-opacity="1" d="M 246.800781 165 C 246.800781 162.601563 243.199219 162.601563 243.199219 165 C 243.199219 167.398438 246.800781 167.398438 246.800781 165 Z M 246.199219 165 C 246.199219 163.398438 243.800781 163.398438 243.800781 165 C 243.800781 166.601563 246.199219 166.601563 246.199219 165 Z M 246.199219 165 "/>
<path fill="none" stroke-width="0.4" stroke-linecap="butt" stroke-linejoin="round" stroke="rgb(0%, 0%, 100%)" stroke-opacity="1" stroke-miterlimit="10" d="M 144 656 L 224 656 L 176 624 " transform="matrix(1, 0, 0, -1, -107, 757)"/>
<path fill="none" stroke-width="0.4" stroke-linecap="butt" stroke-linejoin="round" stroke="rgb(0%, 0%, 100%)" stroke-opacity="1" stroke-miterlimit="10" d="M 176 624 L 208 592 " transform="matrix(1, 0, 0, -1, -107, 757)"/>
<path fill="none" stroke-width="0.4" stroke-linecap="butt" stroke-linejoin="round" stroke="rgb(0%, 0%, 100%)" stroke-opacity="1" stroke-miterlimit="10" d="M 208 592 L 352 592 " transform="matrix(1, 0, 0, -1, -107, 757)"/>
<path fill="none" stroke-width="0.4" stroke-linecap="butt" stroke-linejoin="round" stroke="rgb(0%, 0%, 100%)" stroke-opacity="1" stroke-miterlimit="10" d="M 208 592 L 224 656 " transform="matrix(1, 0, 0, -1, -107, 757)"/>
<path fill="none" stroke-width="0.4" stroke-linecap="butt" stroke-linejoin="round" stroke="rgb(0%, 0%, 100%)" stroke-opacity="1" stroke-miterlimit="10" d="M 224 656 L 352 592 " transform="matrix(1, 0, 0, -1, -107, 757)"/>
<path fill="none" stroke-width="0.4" stroke-linecap="butt" stroke-linejoin="round" stroke="rgb(0%, 0%, 100%)" stroke-opacity="1" stroke-miterlimit="10" d="M 288 672 L 352 592 " transform="matrix(1, 0, 0, -1, -107, 757)"/>
<path fill="none" stroke-width="0.4" stroke-linecap="butt" stroke-linejoin="round" stroke="rgb(0%, 0%, 100%)" stroke-opacity="1" stroke-miterlimit="10" d="M 352 592 L 384 672 L 288 672 " transform="matrix(1, 0, 0, -1, -107, 757)"/>
<path fill="none" stroke-width="0.4" stroke-linecap="butt" stroke-linejoin="round" stroke="rgb(0%, 0%, 100%)" stroke-opacity="1" stroke-miterlimit="10" d="M 288 672 L 368 752 " transform="matrix(1, 0, 0, -1, -107, 757)"/>
<path fill-rule="evenodd" fill="rgb(0%, 50.2%, 100%)" fill-opacity="1" d="M 73.199219 133 C 73.199219 127.398438 64.800781 127.398438 64.800781 133 C 64.800781 138.601563 73.199219 138.601563 73.199219 133 Z M 73.199219 133 "/>
<path fill-rule="evenodd" fill="rgb(0%, 100%, 0%)" fill-opacity="1" d="M 41.199219 101 C 41.199219 95.398438 32.800781 95.398438 32.800781 101 C 32.800781 106.601563 41.199219 106.601563 41.199219 101 Z M 41.199219 101 "/>
<path fill-rule="evenodd" fill="rgb(100%, 0%, 0%)" fill-opacity="1" d="M 121.199219 101 C 121.199219 95.398438 112.800781 95.398438 112.800781 101 C 112.800781 106.601563 121.199219 106.601563 121.199219 101 Z M 121.199219 101 "/>
<path fill-rule="evenodd" fill="rgb(0%, 50.2%, 100%)" fill-opacity="1" d="M 105.199219 37 C 105.199219 31.398438 96.800781 31.398438 96.800781 37 C 96.800781 42.601563 105.199219 42.601563 105.199219 37 Z M 105.199219 37 "/>
<path fill-rule="evenodd" fill="rgb(0%, 100%, 0%)" fill-opacity="1" d="M 105.199219 165 C 105.199219 159.398438 96.800781 159.398438 96.800781 165 C 96.800781 170.601563 105.199219 170.601563 105.199219 165 Z M 105.199219 165 "/>
<path fill-rule="evenodd" fill="rgb(100%, 0%, 0%)" fill-opacity="1" d="M 9.199219 197 C 9.199219 191.398438 0.800781 191.398438 0.800781 197 C 0.800781 202.601563 9.199219 202.601563 9.199219 197 Z M 9.199219 197 "/>
<path fill-rule="evenodd" fill="rgb(0%, 50.2%, 100%)" fill-opacity="1" d="M 249.199219 165 C 249.199219 159.398438 240.800781 159.398438 240.800781 165 C 240.800781 170.601563 249.199219 170.601563 249.199219 165 Z M 249.199219 165 "/>
<path fill-rule="evenodd" fill="rgb(0%, 100%, 25.1%)" fill-opacity="1" d="M 185.199219 85 C 185.199219 79.398438 176.800781 79.398438 176.800781 85 C 176.800781 90.601563 185.199219 90.601563 185.199219 85 Z M 185.199219 85 "/>
<path fill-rule="evenodd" fill="rgb(100%, 0%, 0%)" fill-opacity="1" d="M 281.199219 85 C 281.199219 79.398438 272.800781 79.398438 272.800781 85 C 272.800781 90.601563 281.199219 90.601563 281.199219 85 Z M 281.199219 85 "/>
<path fill-rule="evenodd" fill="rgb(100%, 0%, 0%)" fill-opacity="1" d="M 153.199219 245 C 153.199219 239.398438 144.800781 239.398438 144.800781 245 C 144.800781 250.601563 153.199219 250.601563 153.199219 245 Z M 153.199219 245 "/>
<path fill-rule="evenodd" fill="rgb(0%, 100%, 25.1%)" fill-opacity="1" d="M 361.199219 117 C 361.199219 111.398438 352.800781 111.398438 352.800781 117 C 352.800781 122.601563 361.199219 122.601563 361.199219 117 Z M 361.199219 117 "/>
<path fill-rule="evenodd" fill="rgb(0%, 50.2%, 100%)" fill-opacity="1" d="M 265.199219 5 C 265.199219 -0.601563 256.800781 -0.601563 256.800781 5 C 256.800781 10.601563 265.199219 10.601563 265.199219 5 Z M 265.199219 5 "/>
<path fill-rule="evenodd" fill="rgb(100%, 0%, 0%)" fill-opacity="1" d="M 137.199219 53 C 137.199219 47.398438 128.800781 47.398438 128.800781 53 C 128.800781 58.601563 137.199219 58.601563 137.199219 53 Z M 137.199219 53 "/>
</svg>
